<svg id="Layer_1" data-name="Layer 1" xmlns="http://www.w3.org/2000/svg" xmlns:xlink="http://www.w3.org/1999/xlink" viewBox="0 0 1800 639.1"><defs><style>.cls-1{fill:url(#linear-gradient);}.cls-2{font-size:12px;font-family:MyriadPro-Regular, Myriad Pro;}.cls-3{letter-spacing:-0.01em;}.cls-4{letter-spacing:-0.01em;}</style><linearGradient id="linear-gradient" x1="969.98" y1="579.64" x2="882.14" y2="81.51" gradientUnits="userSpaceOnUse"><stop offset="0" stop-color="#981b40"/><stop offset="1" stop-color="#90278e"/></linearGradient></defs><path class="cls-1" d="M518.3,469.28H476.92c-7,0-10.13-3.09-10.13-10.13V384.84c0-11.26,3.38-25.34,11-45l24.49-63.9c2.25-6.47,6.75-9.29,14.35-9.29h75.72c7.32,0,11.82,2.82,14.07,9.29l24.49,63.9c7.6,19.7,11,33.78,11,45v74.31c0,7-3.09,10.13-10.13,10.13H589.23c-7.6,0-11-3.09-11-10.13V419.74H528.43v39.41C528.43,466.19,525.34,469.28,518.3,469.28Zm13-100.77h44.19l-13.23-42.79c-1.41-3.37-3.09-4.78-5.35-4.78h-7c-2.26,0-3.94,1.41-5.35,4.78ZM680.16,469.28c-7,0-10.14-3.09-10.14-10.13V421.43c0-7.32,2-12.1,7-17.45l68.4-83H685.22c-7,0-10.13-3.1-10.13-10.13V276.75c0-7,3.1-10.14,10.13-10.14H814.71c7,0,10.13,3.1,10.13,10.14v41.94c0,7.6-2,12.38-7,17.73l-65.3,79.1h67.27c7,0,10.14,3.1,10.14,10.13v33.5c0,7-3.1,10.13-10.14,10.13Zm248.27,0c-47.29,0-69.25-18.29-69.25-57.42V324.32c0-39.41,22-57.71,69.25-57.71h68.68c7,0,10.13,3.1,10.13,10.14v34.06c0,7-3.1,10.13-10.13,10.13H940.53c-11.82,0-17.17,4.5-17.17,14.07v67c0,9.29,5.35,13.51,17.17,13.51h56.58c7,0,10.13,3.1,10.13,10.13v33.5c0,7-3.1,10.13-10.13,10.13Zm157.91,0H1045c-7,0-10.13-3.09-10.13-10.13V384.84c0-11.26,3.37-25.34,11-45l24.49-63.9c2.26-6.47,6.76-9.29,14.36-9.29h75.72c7.32,0,11.82,2.82,14.07,9.29l24.49,63.9c7.6,19.7,11,33.78,11,45v74.31c0,7-3.1,10.13-10.13,10.13h-42.51c-7.6,0-11-3.09-11-10.13V419.74h-49.83v39.41C1096.47,466.19,1093.38,469.28,1086.34,469.28Zm13-100.77h44.19l-13.23-42.79c-1.41-3.37-3.1-4.78-5.35-4.78h-7c-2.26,0-3.95,1.41-5.35,4.78Zm155.38,100.77c-7,0-10.13-3.09-10.13-10.13V276.75c0-7,3.09-10.14,10.13-10.14h94.86c47.29,0,69.25,18.3,69.25,57.43v87.82c0,39.13-22,57.42-69.25,57.42Zm53.76-53.2h33.5c9,0,13.23-4.22,13.23-13.79v-68.4c0-9.29-4.22-13.51-13.23-13.51h-33.5Zm145-95.7V276.75c0-7,3.1-10.14,10.13-10.14h130.61c7,0,10.14,3.1,10.14,10.14v32.93c0,7-3.1,10.13-10.14,10.13h-77.69m-63,74.87V351.05c0-7,3.1-10.13,10.13-10.13h130.61c7,0,10.14,3.1,10.14,10.13V384c0,7-3.1,10.13-10.14,10.13h-77.69m-63,75.73V426.22c0-7,3.1-10.14,10.13-10.14h130.61c7,0,10.14,3.1,10.14,10.14v32.93c0,7-3.1,10.13-10.14,10.13h-77.69M404.93,262.37,438.83,216l28,15.57s-16-66.12-18.13-73.59l-75.72,21.33,27.32,15.21L341.9,278.83l41.83,22.47Q368.85,321.43,354,341.54l-20.62-.05h-8.42V276.75c0-7-3.1-10.14-10.13-10.14H271.16c-7,0-10.14,3.1-10.14,10.14v182.4c0,7,3.1,10.13,10.14,10.13h43.63c7,0,10.13-3.09,10.13-10.13V394.69h37.16c5.91,0,9,3.38,9,9.57v54.89c0,7,3.1,10.13,10.14,10.13h43.35c7,0,10.13-3.09,10.13-10.13V379.77c0-19-9.67-32.46-25.43-36.82q21.63-29.34,43.25-58.7Z"/><text class="cls-2" transform="translate(1244.54 381.43)"><tspan class="cls-3">L</tspan><tspan x="5.5" y="0">o</tspan><tspan class="cls-4" x="12.08" y="0">r</tspan><tspan x="15.89" y="0">em ipsum</tspan></text></svg>